<svg width="145" height="145" viewBox="0 0 145 145" fill="none" xmlns="http://www.w3.org/2000/svg">
<path fill-rule="evenodd" clip-rule="evenodd" d="M72.5 145C32.4594 145 0 112.541 0 72.5C0 32.4594 32.4594 0 72.5 0C112.541 0 145 32.4594 145 72.5C145 112.541 112.541 145 72.5 145ZM121.269 106.276C127.92 96.6907 131.818 85.0505 131.818 72.5C131.818 39.7395 105.261 13.1818 72.5 13.1818C39.7395 13.1818 13.1818 39.7395 13.1818 72.5C13.1818 85.0506 17.0796 96.6908 23.7306 106.276C31.1453 96.4821 48.565 92.2761 72.4711 92.2727C57.7269 92.2592 46.1364 81.893 46.1364 59.3182C46.1364 44.5266 56.5441 32.9546 72.5 32.9546C88.4117 32.9546 98.8636 45.6195 98.8636 60.6364C98.8636 82.2377 87.1348 92.2595 72.5291 92.2727C96.4352 92.2761 113.855 96.4821 121.269 106.276ZM111.813 116.921C109.884 109.985 96.0255 105.455 72.5 105.455C48.9745 105.455 35.1163 109.985 33.1873 116.921C43.6536 126.191 57.4196 131.818 72.5 131.818C87.5804 131.818 101.346 126.191 111.813 116.921ZM59.3182 59.3182C59.3182 74.2747 64.7109 79.0909 72.5 79.0909C80.2622 79.0909 85.6818 74.4667 85.6818 60.6364C85.6818 52.4005 80.5123 46.1364 72.5 46.1364C64.1542 46.1364 59.3182 51.5134 59.3182 59.3182Z" fill="#CFCFCF"/>
</svg>
